<svg xmlns="http://www.w3.org/2000/svg" viewBox="0 0 96 96" role="img" aria-label="Olympus messenger pigeon">
  <defs>
    <radialGradient id="halo" cx="50%" cy="45%" r="52%">
      <stop offset="0%" stop-color="#fff7cf" stop-opacity="0.95"/>
      <stop offset="58%" stop-color="#9ee7ff" stop-opacity="0.26"/>
      <stop offset="100%" stop-color="#0b1220" stop-opacity="0"/>
    </radialGradient>
    <linearGradient id="wing" x1="0" x2="1" y1="0" y2="1">
      <stop offset="0" stop-color="#fff7de"/>
      <stop offset="0.52" stop-color="#d7ecff"/>
      <stop offset="1" stop-color="#8fb2cf"/>
    </linearGradient>
    <linearGradient id="body" x1="0" x2="1" y1="0" y2="1">
      <stop offset="0" stop-color="#ffffff"/>
      <stop offset="0.48" stop-color="#eaf6ff"/>
      <stop offset="1" stop-color="#b9cfe3"/>
    </linearGradient>
  </defs>
  <circle cx="48" cy="48" r="44" fill="url(#halo)"/>
  <path d="M44 45C31 30 18 23 8 26c10 5 18 16 25 31 3-5 7-9 11-12Z" fill="url(#wing)" stroke="#fff2bd" stroke-width="2" stroke-linejoin="round" opacity="0.95"/>
  <path d="M51 43c16-13 29-16 38-10-11 3-22 12-33 27-1-6-2-11-5-17Z" fill="url(#wing)" stroke="#fff2bd" stroke-width="2" stroke-linejoin="round" opacity="0.92"/>
  <path d="M33 54c5-14 22-21 34-10 7 7 6 19-3 25-11 8-29 2-33-8-1-2 0-5 2-7Z" fill="url(#body)" stroke="#fff7d6" stroke-width="2"/>
  <path d="M62 40c5-5 12-4 16 1-5 0-9 2-12 6" fill="#eef9ff" stroke="#fff2bd" stroke-width="2" stroke-linecap="round"/>
  <circle cx="69" cy="40" r="2.3" fill="#101827"/>
  <path d="M77 42l9 3-9 4c2-3 2-5 0-7Z" fill="#f5c76d" stroke="#fff2bd" stroke-width="1"/>
  <path d="M43 64c-3 5-7 8-12 9 6 2 13 1 19-4" fill="#cddff0" stroke="#fff2bd" stroke-width="1.5" stroke-linecap="round"/>
  <rect x="30" y="61" width="17" height="10" rx="2" fill="#8a5b2d" stroke="#ffe2a0" stroke-width="1.5" transform="rotate(-10 38.5 66)"/>
  <path d="M32 64l7 4 7-7" fill="none" stroke="#ffe9b4" stroke-width="1.3"/>
</svg>
